<mxfile host="65bd71144e">
    <diagram id="Mv6_nK2iohNrNBbTlWWS" name="Page-1">
        <mxGraphModel dx="2464" dy="1440" grid="1" gridSize="10" guides="1" tooltips="1" connect="1" arrows="1" fold="1" page="1" pageScale="1" pageWidth="1100" pageHeight="850" math="0" shadow="0">
            <root>
                <mxCell id="0"/>
                <mxCell id="1" parent="0"/>
                <mxCell id="2" value="&lt;h5&gt;&lt;br&gt;&lt;/h5&gt;" style="image;html=1;image=img/lib/clip_art/computers/iPad_128x128.png" parent="1" vertex="1">
                    <mxGeometry x="120" y="260" width="80" height="80" as="geometry"/>
                </mxCell>
                <mxCell id="4" value="" style="image;html=1;image=img/lib/clip_art/computers/Network_2_128x128.png" parent="1" vertex="1">
                    <mxGeometry x="-30" y="130" width="340" height="90" as="geometry"/>
                </mxCell>
                <mxCell id="5" value="" style="whiteSpace=wrap;html=1;aspect=fixed;" vertex="1" parent="1">
                    <mxGeometry x="-150" y="-300" width="1240" height="1240" as="geometry"/>
                </mxCell>
                <mxCell id="80" value="Collect" style="html=1;verticalLabelPosition=bottom;align=center;labelBackgroundColor=#ffffff;verticalAlign=top;strokeWidth=2;strokeColor=#000000;shadow=0;dashed=0;shape=mxgraph.ios7.icons.folders_2;fontSize=14;" vertex="1" parent="1">
                    <mxGeometry x="390" y="60" width="100" height="60" as="geometry"/>
                </mxCell>
                <mxCell id="88" value="" style="endArrow=classic;html=1;fontSize=14;exitX=1.061;exitY=0.446;exitDx=0;exitDy=0;exitPerimeter=0;" edge="1" parent="1" source="110">
                    <mxGeometry width="50" height="50" relative="1" as="geometry">
                        <mxPoint x="250" y="88" as="sourcePoint"/>
                        <mxPoint x="380" y="90" as="targetPoint"/>
                    </mxGeometry>
                </mxCell>
                <mxCell id="91" value="DATA" style="html=1;verticalLabelPosition=bottom;align=center;labelBackgroundColor=#ffffff;verticalAlign=top;strokeWidth=2;strokeColor=#000000;shadow=0;dashed=0;shape=mxgraph.ios7.icons.data;fontSize=14;" vertex="1" parent="1">
                    <mxGeometry x="620" y="41.87" width="70" height="88.13" as="geometry"/>
                </mxCell>
                <mxCell id="93" value="" style="endArrow=classic;html=1;fontSize=14;" edge="1" parent="1">
                    <mxGeometry width="50" height="50" relative="1" as="geometry">
                        <mxPoint x="490" y="87" as="sourcePoint"/>
                        <mxPoint x="600" y="87" as="targetPoint"/>
                    </mxGeometry>
                </mxCell>
                <mxCell id="98" value="donnees&lt;br&gt;&amp;nbsp;non verifiees" style="html=1;verticalLabelPosition=bottom;align=center;labelBackgroundColor=#ffffff;verticalAlign=top;strokeWidth=2;strokeColor=#000000;shadow=0;dashed=0;shape=mxgraph.ios7.icons.folders_2;fontSize=14;" vertex="1" parent="1">
                    <mxGeometry x="800" y="65" width="100" height="50" as="geometry"/>
                </mxCell>
                <mxCell id="104" value="" style="endArrow=classic;html=1;fontSize=14;exitX=1.001;exitY=0.542;exitDx=0;exitDy=0;exitPerimeter=0;entryX=-0.002;entryY=0.479;entryDx=0;entryDy=0;entryPerimeter=0;" edge="1" parent="1" source="91" target="98">
                    <mxGeometry width="50" height="50" relative="1" as="geometry">
                        <mxPoint x="560" y="190" as="sourcePoint"/>
                        <mxPoint x="610" y="140" as="targetPoint"/>
                    </mxGeometry>
                </mxCell>
                <mxCell id="105" value="&lt;span style=&quot;white-space: pre;&quot;&gt;&#9;&lt;/span&gt;Etape de verification" style="html=1;verticalLabelPosition=bottom;align=center;labelBackgroundColor=#ffffff;verticalAlign=top;strokeWidth=2;strokeColor=#0080F0;shadow=0;dashed=0;shape=mxgraph.ios7.icons.settings;fontSize=14;" vertex="1" parent="1">
                    <mxGeometry x="810" y="260" width="80" height="80" as="geometry"/>
                </mxCell>
                <mxCell id="106" value="" style="endArrow=classic;html=1;fontSize=14;exitX=0.569;exitY=1.029;exitDx=0;exitDy=0;exitPerimeter=0;entryX=0.574;entryY=-0.055;entryDx=0;entryDy=0;entryPerimeter=0;" edge="1" parent="1" source="98" target="105">
                    <mxGeometry width="50" height="50" relative="1" as="geometry">
                        <mxPoint x="560" y="190" as="sourcePoint"/>
                        <mxPoint x="610" y="140" as="targetPoint"/>
                    </mxGeometry>
                </mxCell>
                <mxCell id="107" value="DATA" style="shape=cylinder3;whiteSpace=wrap;html=1;boundedLbl=1;backgroundOutline=1;size=15;strokeColor=#000000;fontSize=14;" vertex="1" parent="1">
                    <mxGeometry x="670" y="250" width="70" height="90" as="geometry"/>
                </mxCell>
                <mxCell id="108" value="" style="endArrow=classic;html=1;fontSize=14;exitX=0.104;exitY=0.58;exitDx=0;exitDy=0;exitPerimeter=0;entryX=1.146;entryY=0.627;entryDx=0;entryDy=0;entryPerimeter=0;" edge="1" parent="1" source="105" target="107">
                    <mxGeometry width="50" height="50" relative="1" as="geometry">
                        <mxPoint x="560" y="190" as="sourcePoint"/>
                        <mxPoint x="610" y="140" as="targetPoint"/>
                    </mxGeometry>
                </mxCell>
                <mxCell id="110" value="" style="swimlane;startSize=0;strokeColor=#FFFFFF;fontSize=14;" vertex="1" parent="1">
                    <mxGeometry x="170" y="20" width="145" height="150" as="geometry"/>
                </mxCell>
                <mxCell id="127" value="&lt;b&gt;Employe&lt;/b&gt;" style="rounded=1;whiteSpace=wrap;html=1;strokeColor=#FFFFFF;fontSize=14;" vertex="1" parent="110">
                    <mxGeometry y="45" width="120" height="60" as="geometry"/>
                </mxCell>
                <mxCell id="111" value="" style="endArrow=none;dashed=1;html=1;dashPattern=1 3;strokeWidth=2;fontSize=14;" edge="1" parent="1">
                    <mxGeometry width="50" height="50" relative="1" as="geometry">
                        <mxPoint x="280" y="180" as="sourcePoint"/>
                        <mxPoint x="960" y="180" as="targetPoint"/>
                    </mxGeometry>
                </mxCell>
                <mxCell id="119" value="&lt;b&gt;Expert&lt;/b&gt;" style="rounded=1;whiteSpace=wrap;html=1;strokeColor=#FFFFFF;fontSize=14;" vertex="1" parent="1">
                    <mxGeometry x="880" y="270" width="120" height="60" as="geometry"/>
                </mxCell>
                <mxCell id="121" value="" style="shape=actor;whiteSpace=wrap;html=1;strokeColor=#000000;fontSize=14;" vertex="1" parent="1">
                    <mxGeometry x="900" y="285" width="20" height="20" as="geometry"/>
                </mxCell>
                <mxCell id="126" value="" style="whiteSpace=wrap;html=1;aspect=fixed;strokeColor=#FFFFFF;fontSize=14;" vertex="1" parent="1">
                    <mxGeometry x="930" y="90" width="80" height="80" as="geometry"/>
                </mxCell>
                <mxCell id="128" value="" style="shape=actor;whiteSpace=wrap;html=1;strokeColor=#000000;fontSize=14;" vertex="1" parent="1">
                    <mxGeometry x="280" y="62.04000000000002" width="30" height="24.07" as="geometry"/>
                </mxCell>
                <mxCell id="129" value="" style="shape=actor;whiteSpace=wrap;html=1;strokeColor=#000000;fontSize=14;" vertex="1" parent="1">
                    <mxGeometry x="260" y="76.1" width="30" height="24.07" as="geometry"/>
                </mxCell>
                <mxCell id="135" value="User" style="swimlane;fontStyle=0;childLayout=stackLayout;horizontal=1;startSize=26;fillColor=none;horizontalStack=0;resizeParent=1;resizeParentMax=0;resizeLast=0;collapsible=1;marginBottom=0;strokeColor=#000000;fontSize=14;" vertex="1" parent="1">
                    <mxGeometry x="120" y="510" width="140" height="52" as="geometry"/>
                </mxCell>
                <mxCell id="139" value="Donnee_collectee" style="swimlane;fontStyle=0;childLayout=stackLayout;horizontal=1;startSize=20;fillColor=none;horizontalStack=0;resizeParent=1;resizeParentMax=0;resizeLast=0;collapsible=1;marginBottom=0;strokeColor=#000000;fontSize=14;" vertex="1" parent="1">
                    <mxGeometry x="380" y="510" width="140" height="52" as="geometry"/>
                </mxCell>
                <mxCell id="143" value="Donnee_verifiee" style="swimlane;fontStyle=0;childLayout=stackLayout;horizontal=1;startSize=26;fillColor=none;horizontalStack=0;resizeParent=1;resizeParentMax=0;resizeLast=0;collapsible=1;marginBottom=0;strokeColor=#000000;fontSize=14;" vertex="1" parent="1">
                    <mxGeometry x="120" y="610" width="140" height="52" as="geometry"/>
                </mxCell>
                <mxCell id="144" value="Donnee_Audio" style="swimlane;fontStyle=0;childLayout=stackLayout;horizontal=1;startSize=26;fillColor=none;horizontalStack=0;resizeParent=1;resizeParentMax=0;resizeLast=0;collapsible=1;marginBottom=0;strokeColor=#000000;fontSize=14;" vertex="1" parent="1">
                    <mxGeometry x="330" y="610" width="140" height="52" as="geometry"/>
                </mxCell>
                <mxCell id="148" value="Donnee_Textuelle" style="swimlane;fontStyle=0;childLayout=stackLayout;horizontal=1;startSize=26;fillColor=none;horizontalStack=0;resizeParent=1;resizeParentMax=0;resizeLast=0;collapsible=1;marginBottom=0;strokeColor=#000000;fontSize=14;" vertex="1" parent="1">
                    <mxGeometry x="480" y="610" width="140" height="52" as="geometry"/>
                </mxCell>
                <mxCell id="150" value="" style="endArrow=none;html=1;fontSize=14;entryX=0;entryY=0.5;entryDx=0;entryDy=0;" edge="1" parent="1" target="139">
                    <mxGeometry width="50" height="50" relative="1" as="geometry">
                        <mxPoint x="260" y="536" as="sourcePoint"/>
                        <mxPoint x="580" y="430" as="targetPoint"/>
                    </mxGeometry>
                </mxCell>
                <mxCell id="151" value="" style="endArrow=classic;html=1;fontSize=14;" edge="1" parent="1">
                    <mxGeometry width="50" height="50" relative="1" as="geometry">
                        <mxPoint x="385" y="610" as="sourcePoint"/>
                        <mxPoint x="430" y="560" as="targetPoint"/>
                    </mxGeometry>
                </mxCell>
                <mxCell id="152" value="" style="endArrow=classic;html=1;fontSize=14;exitX=0.435;exitY=-0.026;exitDx=0;exitDy=0;exitPerimeter=0;entryX=0.75;entryY=1;entryDx=0;entryDy=0;" edge="1" parent="1" source="148" target="139">
                    <mxGeometry width="50" height="50" relative="1" as="geometry">
                        <mxPoint x="530" y="480" as="sourcePoint"/>
                        <mxPoint x="580" y="430" as="targetPoint"/>
                    </mxGeometry>
                </mxCell>
                <mxCell id="155" value="" style="endArrow=none;html=1;fontSize=14;exitX=0.5;exitY=0;exitDx=0;exitDy=0;entryX=0.5;entryY=1;entryDx=0;entryDy=0;" edge="1" parent="1" source="143" target="135">
                    <mxGeometry width="50" height="50" relative="1" as="geometry">
                        <mxPoint x="530" y="480" as="sourcePoint"/>
                        <mxPoint x="580" y="430" as="targetPoint"/>
                    </mxGeometry>
                </mxCell>
                <mxCell id="157" value="" style="endArrow=none;html=1;fontSize=14;exitX=0.5;exitY=0;exitDx=0;exitDy=0;" edge="1" parent="1" source="135" target="149">
                    <mxGeometry width="50" height="50" relative="1" as="geometry">
                        <mxPoint x="190" y="510" as="sourcePoint"/>
                        <mxPoint x="190" y="460" as="targetPoint"/>
                    </mxGeometry>
                </mxCell>
                <mxCell id="149" value="COMMENT" style="swimlane;fontStyle=0;childLayout=stackLayout;horizontal=1;startSize=30;fillColor=none;horizontalStack=0;resizeParent=1;resizeParentMax=0;resizeLast=0;collapsible=1;marginBottom=0;strokeColor=#000000;fontSize=14;" vertex="1" parent="1">
                    <mxGeometry x="120" y="430" width="140" height="52" as="geometry"/>
                </mxCell>
            </root>
        </mxGraphModel>
    </diagram>
</mxfile>